<mxfile host="Electron" agent="Mozilla/5.0 (Windows NT 10.0; Win64; x64) AppleWebKit/537.36 (KHTML, like Gecko) draw.io/28.1.2 Chrome/138.0.7204.243 Electron/37.4.0 Safari/537.36" version="28.1.2">
  <diagram name="Página-1" id="7fF4bPwRGlMTz7X80DgY">
    <mxGraphModel dx="752" dy="497" grid="1" gridSize="10" guides="1" tooltips="1" connect="1" arrows="1" fold="1" page="0" pageScale="1" pageWidth="827" pageHeight="1169" math="0" shadow="0">
      <root>
        <mxCell id="0" />
        <mxCell id="1" parent="0" />
        <mxCell id="HLc-tmsOWwEyYzr_2YFB-1" value="Enunciado 9 Modelo Entidad Interrelación&lt;br&gt; Se pretende llevar a cabo un control sobre la energía eléctrica que se produce y consume en&lt;br&gt;un determinado país. Se parte de las siguientes hipótesis:&lt;br&gt;Existen &lt;span style=&quot;background-color: rgb(0, 153, 0);&quot;&gt;productores básicos de electricidad&lt;/span&gt; que se identifican por &lt;span style=&quot;background-color: rgb(0, 153, 0);&quot;&gt;un nombre, de los cuales&lt;br&gt;interesa su producción media, producción máxima y fecha de entrada en funcionamiento&lt;/span&gt;.&amp;nbsp;&lt;div&gt;Estos productores básicos lo son de una de las siguientes categorías: &lt;span style=&quot;background-color: rgb(0, 153, 0);&quot;&gt;Hidroeléctrica, Solar, Nuclear o&lt;br&gt;Térmica.&amp;nbsp;&lt;/span&gt;&lt;/div&gt;&lt;div&gt;De una&lt;span style=&quot;background-color: rgb(0, 153, 0);&quot;&gt; central hidroeléctrica o presa nos interesa saber su ocupación, capacidad&lt;br&gt;máxima y número de turbinas&lt;/span&gt;.&amp;nbsp;&lt;/div&gt;&lt;div&gt;&lt;span style=&quot;background-color: rgb(0, 153, 0);&quot;&gt;De una central Solar interesa saber su superficie total de paneles solares, la media anual de horas de sol y tipo.&lt;/span&gt;&amp;nbsp;&lt;/div&gt;&lt;div&gt;&lt;span style=&quot;background-color: rgb(0, 153, 0);&quot;&gt;De una central Nuclear nos interesa saber el número de reactores que posee, el volumen de plutonio consumido y el de residuos&lt;br&gt;nucleares que produce&lt;/span&gt;.&amp;nbsp;&lt;/div&gt;&lt;div&gt;&lt;span style=&quot;background-color: rgb(0, 153, 0);&quot;&gt;De una central térmica nos interesa saber el número de hornos que&lt;br&gt;posee, el volumen de carbón consumido y el volumen de su emisión de gases.&lt;/span&gt;&lt;/div&gt;&lt;div&gt;&lt;br&gt;Por motivos de seguridad nacional interesa controlar el plutonio de que se provee una central&lt;br&gt;nuclear, este control se refiere a la cantidad de plutonio que compra a cada uno de sus&lt;br&gt;posibles&lt;span style=&quot;background-color: rgb(0, 153, 0);&quot;&gt; suministradores (nombre, país)&lt;/span&gt; y que porta un determinado &lt;span style=&quot;background-color: rgb(0, 153, 0);&quot;&gt;transportista (nombre,&lt;br&gt;matrícula)&lt;/span&gt; &lt;span style=&quot;background-color: rgb(204, 0, 102);&quot;&gt;ha de tenerse en cuenta que el mismo suministrador puede vender plutonio a&lt;br&gt;distintas centrales y que cada porte, puede realizarlo un transportista diferente.&lt;/span&gt;&lt;/div&gt;&lt;div&gt;&lt;br&gt;Cada día los productores entregan la energía producida a una o varias &lt;span style=&quot;background-color: rgb(0, 153, 0);&quot;&gt;estaciones primarias,&lt;/span&gt;&lt;br&gt;las cuales pueden recibir diariamente una cantidad distinta de energía de cada uno de estos&lt;br&gt;productores. Los productores entregan siempre el total de su producción (controlar dicho&lt;br&gt;atributo). Las &lt;span style=&quot;background-color: rgb(0, 153, 0);&quot;&gt;estaciones primarias se identifica por su nombre y tiene un número de&lt;br&gt;transformadores de baja a alta tensión y son cabecera de una o varias redes de distribución.&lt;/span&gt;&lt;/div&gt;&lt;div&gt;&lt;br&gt;&lt;span style=&quot;background-color: rgb(0, 153, 0);&quot;&gt;Una red de distribución se identifica por un número de red y sólo puede tener una estación&lt;br&gt;primaria como cabecera.&amp;nbsp;&lt;/span&gt;&lt;/div&gt;&lt;div&gt;&lt;br&gt;&lt;/div&gt;&lt;div&gt;La propiedad de una red puede ser compartida por &lt;span style=&quot;background-color: rgb(0, 153, 0);&quot;&gt;varias compañías&lt;br&gt;eléctricas, a cada compañía se le identifica por su nombre.&lt;/span&gt;&lt;br&gt;La energía sobrante en una de las redes puede ser enviada a otra red. Se registra el volumen&lt;br&gt;total de energía intercambiada entre dos redes.&lt;br&gt;&lt;br&gt;&lt;/div&gt;&lt;div&gt;Una red está compuesta por una serie de líneas, &lt;span style=&quot;background-color: rgb(0, 153, 0);&quot;&gt;cada línea se identifica por un número&lt;br&gt;secuencial dentro del número de red y tiene una determinada longitud.&amp;nbsp;&amp;nbsp;&lt;/span&gt;&lt;/div&gt;&lt;div&gt;La menor de las líneas&lt;br&gt;posibles abastecerá al menos a dos subestaciones.&lt;br&gt;Una subestación de la que conocemos el número es abastecida por una línea y distribuye a&lt;br&gt;una o varias zonas de servicio.&lt;br&gt;En cada zona de servicio ,que identificaremos con un código, se desea registrar el consumo&lt;br&gt;medio y el número de consumidores finales&lt;/div&gt;" style="text;whiteSpace=wrap;html=1;fontFamily=Architects Daughter;fontSource=https%3A%2F%2Ffonts.googleapis.com%2Fcss%3Ffamily%3DArchitects%2BDaughter;" parent="1" vertex="1">
          <mxGeometry x="20" y="60" width="740" height="650" as="geometry" />
        </mxCell>
      </root>
    </mxGraphModel>
  </diagram>
</mxfile>
